<?xml version="1.0" encoding="iso-8859-1"?>
<!-- Generator: Adobe Illustrator 19.0.0, SVG Export Plug-In . SVG Version: 6.00 Build 0)  -->
<svg version="1.1" id="Capa_1" xmlns="http://www.w3.org/2000/svg" xmlns:xlink="http://www.w3.org/1999/xlink" x="0px" y="0px"
	 viewBox="0 0 512 512" style="enable-background:new 0 0 512 512;" xml:space="preserve">
<rect x="75" y="60" style="fill:#E0E4EC;" width="120" height="75"/>
<rect x="165" y="60" style="fill:#495A79;" width="121" height="75"/>
<rect x="256" y="60" style="fill:#D1D7E3;" width="121" height="75"/>
<rect x="347" y="60" style="fill:#42516D;" width="90" height="75"/>
<rect x="75" y="120" style="fill:#495A79;" width="120" height="75"/>
<rect x="165" y="120" style="fill:#E0E4EC;" width="121" height="75"/>
<rect x="256" y="120" style="fill:#42516D;" width="121" height="75"/>
<rect x="347" y="120" style="fill:#D1D7E3;" width="90" height="75"/>
<rect x="75" y="180" style="fill:#E0E4EC;" width="90" height="60"/>
<rect x="165" y="180" style="fill:#495A79;" width="91" height="60"/>
<rect x="256" y="180" style="fill:#D1D7E3;" width="91" height="60"/>
<rect x="347" y="180" style="fill:#42516D;" width="90" height="60"/>
<path style="fill:#6F7D96;" d="M45,0C20.099,0,0,20.099,0,45v452c0,8.399,6.599,15,15,15h60c8.401,0,15-6.601,15-15V45
	C90,20.099,69.901,0,45,0z"/>
<path style="fill:#66728B;" d="M90,45v452c0,8.399-6.599,15-15,15H45V0C69.901,0,90,20.099,90,45z"/>
<path style="fill:#6F7D96;" d="M467,0c-24.901,0-45,20.099-45,45v452c0,8.399,6.599,15,15,15h60c8.401,0,15-6.601,15-15V45
	C512,20.099,491.901,0,467,0z"/>
<path style="fill:#66728B;" d="M512,45v452c0,8.399-6.599,15-15,15h-30V0C491.901,0,512,20.099,512,45z"/>
<g>
</g>
<g>
</g>
<g>
</g>
<g>
</g>
<g>
</g>
<g>
</g>
<g>
</g>
<g>
</g>
<g>
</g>
<g>
</g>
<g>
</g>
<g>
</g>
<g>
</g>
<g>
</g>
<g>
</g>
</svg>
