<?xml version="1.0" encoding="iso-8859-1"?>
<!-- Generator: Adobe Illustrator 19.0.0, SVG Export Plug-In . SVG Version: 6.00 Build 0)  -->
<svg version="1.1" id="Layer_1" xmlns="http://www.w3.org/2000/svg" xmlns:xlink="http://www.w3.org/1999/xlink" x="0px" y="0px"
	 viewBox="0 0 512 512" style="enable-background:new 0 0 512 512;" xml:space="preserve">
<rect x="215.897" style="fill:#EDD154;" width="45.578" height="512"/>
<g>
	<rect x="215.897" style="fill:#D6B31D;" width="20.519" height="512"/>
	<rect x="215.897" y="87.385" style="fill:#D6B31D;" width="45.578" height="163.85"/>
</g>
<polygon style="fill:#E24260;" points="477.022,134.834 424.119,216.754 34.978,216.754 34.978,52.914 424.119,52.914 "/>
<path style="fill:#CE2647;" d="M342.983,216.754H34.978V52.914h52.537C87.515,52.914,143.94,206.733,342.983,216.754z"/>
<g>
	<path style="fill:#EDD154;" d="M81.25,172.108c-4.329,0-7.837-3.509-7.837-7.837v-58.876c0-4.328,3.508-7.837,7.837-7.837h23.226
		c4.329,0,7.837,3.509,7.837,7.837s-3.508,7.837-7.837,7.837H89.087v51.039C89.087,168.6,85.578,172.108,81.25,172.108z"/>
	<path style="fill:#EDD154;" d="M143.433,172.108c-4.329,0-7.837-3.509-7.837-7.837v-58.876c0-4.328,3.508-7.837,7.837-7.837
		c4.329,0,7.837,3.509,7.837,7.837v58.876C151.27,168.6,147.762,172.108,143.433,172.108z"/>
	<path style="fill:#EDD154;" d="M262.18,172.108c-4.329,0-7.837-3.509-7.837-7.837v-58.876c0-4.328,3.508-7.837,7.837-7.837
		c4.329,0,7.837,3.509,7.837,7.837v58.876C270.016,168.6,266.507,172.108,262.18,172.108z"/>
	<path style="fill:#EDD154;" d="M224.962,172.108c-2.63,0-5.146-1.328-6.611-3.629l-23.03-36.179v31.971
		c0,4.328-3.508,7.837-7.837,7.837c-4.329,0-7.837-3.509-7.837-7.837v-58.876c0-3.484,2.3-6.549,5.645-7.524
		c3.344-0.975,6.932,0.376,8.803,3.315l23.03,36.179v-31.971c0-4.328,3.508-7.837,7.837-7.837c4.329,0,7.837,3.509,7.837,7.837
		v58.876c0,3.484-2.3,6.549-5.645,7.524C226.428,172.007,225.691,172.108,224.962,172.108z"/>
	<path style="fill:#EDD154;" d="M402.006,172.108c-4.329,0-7.837-3.509-7.837-7.837v-58.876c0-4.328,3.508-7.837,7.837-7.837
		c4.329,0,7.837,3.509,7.837,7.837v58.876C409.842,168.6,406.335,172.108,402.006,172.108z"/>
	<path style="fill:#EDD154;" d="M364.527,172.108c-4.329,0-7.837-3.509-7.837-7.837v-58.876c0-4.328,3.508-7.837,7.837-7.837
		s7.837,3.509,7.837,7.837v58.876C372.364,168.6,368.856,172.108,364.527,172.108z"/>
	<path style="fill:#EDD154;" d="M313.839,172.108h-16.546c-4.329,0-7.837-3.509-7.837-7.837c0-4.328,3.508-7.837,7.837-7.837h16.546
		c3.795,0,6.882-3.088,6.882-6.882s-3.087-6.882-6.882-6.882h-1.828c-12.436,0-22.555-10.119-22.555-22.555
		s10.119-22.555,22.555-22.555h16.546c4.329,0,7.837,3.509,7.837,7.837s-3.508,7.837-7.837,7.837h-16.546
		c-3.795,0-6.882,3.088-6.882,6.882s3.087,6.882,6.882,6.882h1.828c12.436,0,22.555,10.119,22.555,22.555
		S326.277,172.108,313.839,172.108z"/>
	<path style="fill:#EDD154;" d="M101.297,141.464H81.25c-4.329,0-7.837-3.509-7.837-7.837c0-4.328,3.508-7.837,7.837-7.837h20.047
		c4.329,0,7.837,3.509,7.837,7.837C109.134,137.955,105.626,141.464,101.297,141.464z"/>
	<path style="fill:#EDD154;" d="M402.006,143.379h-37.478c-4.329,0-7.837-3.509-7.837-7.837c0-4.328,3.508-7.837,7.837-7.837h37.478
		c4.329,0,7.837,3.509,7.837,7.837C409.842,139.87,406.335,143.379,402.006,143.379z"/>
</g>
<g>
</g>
<g>
</g>
<g>
</g>
<g>
</g>
<g>
</g>
<g>
</g>
<g>
</g>
<g>
</g>
<g>
</g>
<g>
</g>
<g>
</g>
<g>
</g>
<g>
</g>
<g>
</g>
<g>
</g>
</svg>
