<?xml version="1.0" encoding="iso-8859-1"?>
<!-- Generator: Adobe Illustrator 19.0.0, SVG Export Plug-In . SVG Version: 6.00 Build 0)  -->
<svg version="1.1" id="Capa_1" xmlns="http://www.w3.org/2000/svg" xmlns:xlink="http://www.w3.org/1999/xlink" x="0px" y="0px"
	 viewBox="0 0 508 508" style="enable-background:new 0 0 508 508;" xml:space="preserve">
<g>
	<path style="fill:#CDD6E0;" d="M337.05,170.9l-78.1,39.1c-7.2-20.6-19.3-38.9-35-53.4l84.9-42.4
		C311.85,136.2,322.05,155.9,337.05,170.9z"/>
	<path style="fill:#CDD6E0;" d="M337.05,337c-15,15-25.2,34.8-28.3,56.8l-84.8-42.3c15.7-14.6,27.8-32.9,35-53.5L337.05,337z"/>
</g>
<circle style="fill:#FFD15C;" cx="133.25" cy="254" r="133.2"/>
<path style="fill:#F8B64C;" d="M235.25,339.8c-5-5.2-10.8-9.2-17.4-12c-16.6-7.2-39.9-17.7-49.3-24.2c-1.2-0.7-2.1-1.5-3-2.1
	c0,0-2.2-19.2-2.1-20.4c0-0.2,10.6-15.6,14.8-29.1c0.2,0.2,0.4,0.3,0.6,0.3c3.6,0.7,7.6-5.5,9.3-13.9c1.7-8.3,0.3-15.6-3.2-16.3
	h-0.6c2-17.6,2.8-65.9-51.2-65c-54.2-1-53.4,47.4-51.4,65h-0.6c-3.4,0.7-4.9,8-3.2,16.3c1.7,8.4,5.9,14.6,9.3,13.9
	c0.2,0,0.4-0.1,0.6-0.3c4.4,13.5,14.9,29.1,14.9,29.1c0,1.3-2.2,20.4-2.2,20.4c-0.8,0.6-1.8,1.4-2.9,2.1c-9.5,6.6-32.8,17-49.3,24.2
	c-6,2.5-11.4,6.1-16,10.5c-0.8,0.7-0.7,1.8-0.1,2.7C53.95,370.3,153.15,430.2,235.25,339.8L235.25,339.8z"/>
<circle style="fill:#84DBFF;" cx="407.85" cy="100.1" r="100.1"/>
<circle style="fill:#54C0EB;" cx="407.85" cy="100.2" r="76.5"/>
<path style="fill:#FFFFFF;" d="M466.45,149.6c-14.1,16.7-35.1,27.3-58.6,27.3s-44.6-10.7-58.6-27.3c2.8-2.9,6.2-5.3,10-6.9
	c9.5-4.1,22.8-10.1,28.3-13.9c0.6-0.4,1.1-0.8,1.6-1.2c0,0,1.3-11,1.3-11.7c0,0-6.1-8.9-8.6-16.7c-0.2,0.1-0.2,0.2-0.4,0.2
	c-1.9,0.4-4.4-3.2-5.3-7.9c-1-4.8-0.1-9,1.9-9.4h0.3c-1.1-10.1-1.5-37.8,29.5-37.3c31-0.6,30.6,27.2,29.4,37.3h0.3
	c2,0.4,2.8,4.6,1.9,9.4c-1,4.8-3.3,8.3-5.3,7.9c-0.2,0-0.2-0.1-0.4-0.2c-2.4,7.8-8.5,16.6-8.5,16.7c-0.1,0.7,1.2,11.7,1.2,11.7
	c0.5,0.4,1.1,0.8,1.7,1.2c5.4,3.8,18.8,9.8,28.3,13.9C460.25,144.3,463.65,146.7,466.45,149.6z"/>
<circle style="fill:#FF7058;" cx="407.85" cy="407.9" r="100.1"/>
<circle style="fill:#F1543F;" cx="407.85" cy="407.9" r="76.5"/>
<path style="fill:#FFFFFF;" d="M466.45,457.3c-14.1,16.7-35.1,27.3-58.6,27.3s-44.6-10.7-58.6-27.3c2.8-2.9,6.2-5.3,10-6.9
	c9.5-4.1,22.8-10.1,28.3-13.9c0.6-0.4,1.1-0.8,1.6-1.2c0,0,1.3-11,1.3-11.7c0,0-6.1-8.9-8.6-16.7c-0.2,0.1-0.2,0.2-0.4,0.2
	c-1.9,0.4-4.4-3.2-5.3-7.9c-1-4.8-0.1-9,1.9-9.4h0.3c-1.1-10.1-1.5-37.8,29.5-37.3c31-0.6,30.6,27.2,29.4,37.3h0.3
	c2,0.4,2.8,4.6,1.9,9.4c-1,4.8-3.3,8.3-5.3,7.9c-0.2,0-0.2-0.1-0.4-0.2c-2.4,7.8-8.5,16.6-8.5,16.7c-0.1,0.7,1.2,11.7,1.2,11.7
	c0.5,0.4,1.1,0.8,1.7,1.2c5.4,3.8,18.8,9.8,28.3,13.9C460.25,452.1,463.65,454.4,466.45,457.3z"/>
<g>
</g>
<g>
</g>
<g>
</g>
<g>
</g>
<g>
</g>
<g>
</g>
<g>
</g>
<g>
</g>
<g>
</g>
<g>
</g>
<g>
</g>
<g>
</g>
<g>
</g>
<g>
</g>
<g>
</g>
</svg>
