<?xml version="1.0" encoding="iso-8859-1"?>
<!-- Generator: Adobe Illustrator 19.0.0, SVG Export Plug-In . SVG Version: 6.00 Build 0)  -->
<svg version="1.1" id="Capa_1" xmlns="http://www.w3.org/2000/svg" xmlns:xlink="http://www.w3.org/1999/xlink" x="0px" y="0px"
	 viewBox="0 0 512 512" style="enable-background:new 0 0 512 512;" xml:space="preserve">
<path style="fill:#303C42;" d="M479.616,344.652c7.206-21.658,11.051-44.237,11.051-67.319c0-35.5-8.906-70.667-25.75-101.698
	c-2.823-5.167-9.281-7.073-14.469-4.281c-5.177,2.813-7.094,9.292-4.281,14.469c15.156,27.906,23.167,59.552,23.167,91.51
	c0,18.648-2.779,36.923-8.004,54.568C447.764,324.556,432.479,320,416,320c-52.938,0-96,43.063-96,96s43.063,96,96,96
	s96-43.063,96-96C512,387.56,499.328,362.246,479.616,344.652z"/>
<circle style="fill:#3D82C4;" cx="416" cy="416" r="74.667"/>
<path style="fill:#303C42;" d="M111.677,171.208c3.354,0,6.646-1.573,8.719-4.51c32.297-45.734,81.581-74.216,136.543-79.988
	C256.635,89.813,256,92.819,256,96c0,52.938,43.063,96,96,96s96-43.063,96-96S404.938,0,352,0
	c-41.982,0-77.366,27.255-90.374,64.867c-63.871,4.639-121.415,36.796-158.647,89.518c-3.406,4.813-2.26,11.469,2.552,14.865
	C107.406,170.573,109.552,171.208,111.677,171.208z"/>
<circle style="fill:#3D82C4;" cx="352" cy="96" r="74.667"/>
<g>
	<path style="opacity:0.2;fill:#FFFFFF;enable-background:new    ;" d="M352,53.333c35.664,0,65.486,25.178,72.845,58.667
		c1.135-5.168,1.822-10.497,1.822-16c0-41.167-33.5-74.667-74.667-74.667S277.333,54.833,277.333,96c0,5.503,0.686,10.832,1.822,16
		C286.514,78.512,316.336,53.333,352,53.333z"/>
	<path style="opacity:0.2;fill:#FFFFFF;enable-background:new    ;" d="M416,373.333c35.664,0,65.486,25.178,72.845,58.667
		c1.135-5.168,1.822-10.497,1.822-16c0-41.167-33.5-74.667-74.667-74.667s-74.667,33.5-74.667,74.667c0,5.503,0.686,10.832,1.822,16
		C350.514,398.512,380.336,373.333,416,373.333z"/>
</g>
<path style="fill:#303C42;" d="M287.458,469.063c-3.354,0.177-6.729,0.271-10.125,0.271c-65.439,0-125.452-33.397-160.72-87.688
	C159.652,372.171,192,333.846,192,288c0-52.938-43.063-96-96-96S0,235.063,0,288c0,51.82,41.34,93.905,92.737,95.671
	c38.1,66.029,108.091,106.996,184.596,106.996c3.771,0,7.521-0.094,11.25-0.292c5.885-0.313,10.396-5.333,10.094-11.219
	C298.365,473.271,293.104,468.531,287.458,469.063z"/>
<circle style="fill:#3D82C4;" cx="96" cy="288" r="74.667"/>
<path style="opacity:0.2;fill:#FFFFFF;enable-background:new    ;" d="M96,245.333c35.664,0,65.486,25.178,72.845,58.667
	c1.135-5.168,1.822-10.497,1.822-16c0-41.167-33.5-74.667-74.667-74.667S21.333,246.833,21.333,288c0,5.503,0.686,10.832,1.822,16
	C30.514,270.512,60.336,245.333,96,245.333z"/>
<linearGradient id="SVGID_1_" gradientUnits="userSpaceOnUse" x1="-43.793" y1="640.2227" x2="-21.0173" y2="629.6028" gradientTransform="matrix(21.3333 0 0 -21.3333 996.3334 13791.667)">
	<stop  offset="0" style="stop-color:#FFFFFF;stop-opacity:0.2"/>
	<stop  offset="1" style="stop-color:#FFFFFF;stop-opacity:0"/>
</linearGradient>
<path style="fill:url(#SVGID_1_);" d="M479.616,344.652c7.206-21.658,11.051-44.237,11.051-67.319
	c0-35.5-8.906-70.667-25.75-101.698c-2.823-5.167-9.281-7.073-14.469-4.281c-5.177,2.813-7.094,9.292-4.281,14.469
	c15.156,27.906,23.167,59.552,23.167,91.51c0,18.648-2.779,36.923-8.004,54.568C447.764,324.556,432.479,320,416,320
	c-52.938,0-96,43.063-96,96s43.063,96,96,96s96-43.063,96-96C512,387.56,499.328,362.246,479.616,344.652z M111.677,171.208
	c3.354,0,6.646-1.573,8.719-4.51c32.297-45.734,81.581-74.216,136.543-79.988C256.635,89.813,256,92.819,256,96
	c0,52.938,43.063,96,96,96s96-43.063,96-96S404.938,0,352,0c-41.982,0-77.366,27.255-90.374,64.867
	c-63.871,4.639-121.415,36.796-158.647,89.518c-3.406,4.813-2.26,11.469,2.552,14.865
	C107.406,170.573,109.552,171.208,111.677,171.208z M287.458,469.063c-3.354,0.177-6.729,0.271-10.125,0.271
	c-65.439,0-125.452-33.397-160.72-87.688C159.652,372.171,192,333.846,192,288c0-52.938-43.063-96-96-96S0,235.063,0,288
	c0,51.82,41.34,93.905,92.737,95.671c38.1,66.029,108.091,106.996,184.596,106.996c3.771,0,7.521-0.094,11.25-0.292
	c5.885-0.313,10.396-5.333,10.094-11.219C298.365,473.271,293.104,468.531,287.458,469.063z"/>
<g>
</g>
<g>
</g>
<g>
</g>
<g>
</g>
<g>
</g>
<g>
</g>
<g>
</g>
<g>
</g>
<g>
</g>
<g>
</g>
<g>
</g>
<g>
</g>
<g>
</g>
<g>
</g>
<g>
</g>
</svg>
