<?xml version="1.0" encoding="iso-8859-1"?>
<!-- Generator: Adobe Illustrator 19.0.0, SVG Export Plug-In . SVG Version: 6.00 Build 0)  -->
<svg version="1.1" id="Capa_1" xmlns="http://www.w3.org/2000/svg" xmlns:xlink="http://www.w3.org/1999/xlink" x="0px" y="0px"
	 viewBox="0 0 512.001 512.001" style="enable-background:new 0 0 512.001 512.001;" xml:space="preserve">
<g>
	<path style="fill:#FEDB41;" d="M503.612,62.212l-36.679-17.991L449.244,7.842c-2.699-5.096-8.096-7.496-13.492-7.496
		c-5.396,0-10.794,2.4-13.193,7.496L404.57,44.221l-35.38,17.991c-5.098,2.398-8.396,7.496-8.396,13.192s3.298,11.094,8.396,13.491
		l35.38,17.691l17.989,35.68c2.4,5.096,7.496,8.096,13.193,8.096c5.697,0,11.094-2.999,13.492-8.096l17.689-35.68l36.679-17.691
		c5.098-2.398,8.096-7.794,8.096-13.491S508.711,64.609,503.612,62.212z"/>
	<path style="fill:#FEDB41;" d="M142.818,62.212l-35.68-17.991L89.449,7.842c-2.698-5.097-8.095-7.496-13.492-7.496
		s-10.794,2.4-13.192,7.496L44.775,44.221L8.396,62.212C3.298,64.609,0,69.708,0,75.404s3.298,11.094,8.396,13.491l36.379,17.691
		l17.989,35.68c2.4,5.096,7.496,8.096,13.192,8.096s11.094-2.999,13.492-8.096l17.689-35.68l35.68-17.691
		c5.098-2.398,8.096-7.794,8.096-13.491S147.917,64.609,142.818,62.212z"/>
</g>
<path style="fill:#FCBF29;" d="M511.269,203.979c-1.771-5.432-6.456-9.385-12.107-10.204l-159.024-22.97L269.469,27.61
	c-2.519-5.124-7.73-8.359-13.439-8.359c-0.064,0-0.112,0.049-0.176,0.049l-14.991,22.94v203.314l14.991,17.243l31.759,7.65
	l196.862-45.513L511.269,203.979z"/>
<path style="fill:#FE9923;" d="M392.124,330.806c75.016-73.123,56.266-53.872,115.353-111.469c4.085-3.982,5.549-9.94,3.792-15.357
	l-255.415,58.818l1.19,24.695l124.884,196.552l31.233,24.787c4.611-3.352,6.925-9.033,5.959-14.655L392.124,330.806z"/>
<path style="fill:#FEDB41;" d="M413.264,508.933c-4.796,3.299-10.794,3.598-15.892,0.901L256.154,430.8h-0.3l-141.22,79.034
	c-5.096,2.697-11.094,2.399-15.59-0.901l3.298-20.388l129.827-212.257l23.685-13.49L413.264,508.933z"/>
<path style="fill:#FEA832;" d="M0.776,203.979c-1.757,5.417-0.293,11.376,3.792,15.357c59.076,57.588,40.376,38.384,115.353,111.469
	L92.939,494.177c-0.966,5.622,1.347,11.303,5.959,14.655l156.956-246.034l-22.968-20.308L37.707,195.223L0.776,203.979z"/>
<path style="fill:#FEDB41;" d="M255.854,19.299c-5.633,0.073-10.773,3.243-13.263,8.31l-70.683,143.194L12.884,193.775
	c-5.651,0.82-10.336,4.772-12.107,10.204l255.078,58.818V19.299z"/>
<path style="fill:#FCBF29;" d="M413.264,508.933c-4.796,3.299-10.794,3.598-15.892,0.901L256.154,430.8h-0.3V262.798
	L413.264,508.933z"/>
<g>
</g>
<g>
</g>
<g>
</g>
<g>
</g>
<g>
</g>
<g>
</g>
<g>
</g>
<g>
</g>
<g>
</g>
<g>
</g>
<g>
</g>
<g>
</g>
<g>
</g>
<g>
</g>
<g>
</g>
</svg>
